<svg xmlns="http://www.w3.org/2000/svg" width="24" height="24" fill="none"><path fill="#EBEBF5" fill-opacity=".6" d="M12 7.5a4.5 4.5 0 1 0 0 9 4.5 4.5 0 0 0 0-9Zm0 7.5a3 3 0 1 1 0-5.999A3 3 0 0 1 12 15Zm4.125-12.375h-8.25a5.256 5.256 0 0 0-5.25 5.25v8.25a5.256 5.256 0 0 0 5.25 5.25h8.25a5.256 5.256 0 0 0 5.25-5.25v-8.25a5.256 5.256 0 0 0-5.25-5.25Zm3.75 13.5a3.754 3.754 0 0 1-3.75 3.75h-8.25a3.754 3.754 0 0 1-3.75-3.75v-8.25a3.754 3.754 0 0 1 3.75-3.75h8.25a3.754 3.754 0 0 1 3.75 3.75v8.25Zm-1.875-9a1.125 1.125 0 1 1-2.25 0 1.125 1.125 0 0 1 2.25 0Z"/></svg>