<svg xmlns="http://www.w3.org/2000/svg" width="24" height="24" fill="none"><path fill="#EBEBF5" fill-opacity=".6" d="m23.03 7.28-2.784 2.785c-.075 2.752-1.126 5.436-2.909 7.407C15.25 19.78 12.367 21 9 21c-3.273 0-4.96-1.65-5.03-1.72a.75.75 0 0 1 .382-1.265c.8-.162 2.787-.794 3.633-1.932a8.714 8.714 0 0 1-2.376-2.012c-2.353-2.857-2.303-6.447-1.847-8.955a.75.75 0 0 1 1.324-.335c.025.033 2.49 3.053 6.164 4.04v-.57a4.53 4.53 0 0 1 4.557-4.5A4.51 4.51 0 0 1 19.647 6H22.5a.75.75 0 0 1 .53 1.28Z"/></svg>