<svg xmlns="http://www.w3.org/2000/svg" width="24" height="24" fill="none"><path fill="#EBEBF5" fill-opacity=".6" d="M12.75 12c0 3.515-2.692 6.375-6 6.375s-6-2.86-6-6.375 2.692-6.375 6-6.375 6 2.86 6 6.375Zm9.75-6a.75.75 0 0 0-.75.75v10.5a.75.75 0 1 0 1.5 0V6.75A.75.75 0 0 0 22.5 6Zm-5.25 0c-.533 0-1.537.259-2.28 1.992-.464 1.083-.72 2.506-.72 4.008 0 1.502.256 2.925.72 4.008C15.713 17.74 16.717 18 17.25 18c.533 0 1.538-.259 2.28-1.992.464-1.083.72-2.506.72-4.008 0-1.502-.256-2.925-.72-4.008C18.787 6.26 17.783 6 17.25 6Z"/></svg>