<svg xmlns="http://www.w3.org/2000/svg" width="24" height="24" fill="none"><path fill="#EBEBF5" fill-opacity=".6" d="M21.968 6.544a2.247 2.247 0 0 0-1.36-1.533C17.397 3.777 12.28 3.787 12 3.788c-.28-.002-5.396-.011-8.609 1.223a2.247 2.247 0 0 0-1.36 1.532C1.79 7.474 1.5 9.177 1.5 12s.289 4.526.532 5.457a2.246 2.246 0 0 0 1.36 1.532c3.075 1.182 7.895 1.223 8.546 1.223h.124c.651 0 5.471-.041 8.547-1.223a2.247 2.247 0 0 0 1.36-1.532c.242-.931.531-2.634.531-5.457s-.289-4.525-.532-5.456Zm-6.76 5.768-4.5 3a.375.375 0 0 1-.583-.312V9a.375.375 0 0 1 .583-.312l4.5 3a.374.374 0 0 1 0 .624Z"/></svg>